<?xml version="1.0" encoding="UTF-8"?>
<svg id="safety_helmet" xmlns="http://www.w3.org/2000/svg" version="1.1" viewBox="0 0 283.4645669 283.4645669">
  <!-- Generator: Adobe Illustrator 29.2.1, SVG Export Plug-In . SVG Version: 2.1.0 Build 116)  -->
  <defs>
    <style>
      .st0 {
        fill: #0476d9;
      }
    </style>
  </defs>
  <path class="st0" d="M270.1650391,197.2089844h-.5625v-22.5185547c0-33.8881836-7.3505859-61.3041992-21.8486328-81.4868164-13.9658203-19.4414062-34.6337891-32.4033203-61.4931641-38.5825195-1.7363281-13.2280273-10.3388672-20.4311523-24.6611328-20.4311523h-39.0249023c-14.9462891,0-23.628418,7.0166016-25.3710938,20.378418-26.6088867,5.8842773-47.1831055,18.6791992-61.2133789,38.0854492-14.6835938,20.3095703-22.1289062,47.9106445-22.1289062,82.0366211v22.5185547h-.5615234c-7.1235352,0-12.9189453,5.7958984-12.9189453,12.9199219v26.2265625c0,7.1240234,5.7954102,12.9189453,12.9189453,12.9189453h6.7270508c1.6308594,0,3.2324219-.3076172,4.7597656-.9140625,19.2216797-7.6318359,70.4487305-18.2099609,116.6376953-18.2216797h.0541992c29.9072266,0,87.2333984,6.328125,117.1982422,18.2207031,1.5273438.6074219,3.1289062.9150391,4.7607355.9150391h6.7275457c7.1230469,0,12.9189453-5.7949219,12.9189453-12.9189453v-26.2265625c0-7.1240234-5.7958984-12.9199219-12.9189453-12.9199219ZM268.5839844,234.7744141h-4.8320312c-33.1425781-13.0585938-92.4667969-19.1357422-122.2749023-19.1357422h-.0566406c-29.5825195.0078125-88.6201172,6.0957031-121.7080078,19.1357422h-4.831543v-23.0654297h13.4804688v-37.0185547c0-31.0117188,6.5200195-55.7548828,19.3793945-73.5410156,12.730957-17.609375,32.1323242-28.8588867,57.6650391-33.4365234l5.9707031-1.0703125v-6.7744141c0-8.7753906,2.4072266-11.1782227,11.1982422-11.1782227h39.0249023c8.9736328,0,10.4882812,3.4482422,10.4882812,11.1782227v6.7124023l5.8984375,1.1191406c51.8916016,9.8427734,77.1162109,44.8398438,77.1162109,106.9907227v37.0185547h13.4814453v23.0654297Z"/>
  <path class="st0" d="M107.0473633,115.4125977c-3.7944336,0-6.9848658-2.9506836-7.2285156-6.7905273l-3-47.2172852c-.2539062-3.9956055,2.7797852-7.440918,6.7758789-7.6948242,4.0083008-.2524414,7.4414062,2.7802734,7.6948242,6.7753906l3,47.2172852c.2539062,3.9960938-2.7797852,7.4414062-6.7758789,7.6953125-.15625.0097656-.3120117.0146484-.4663086.0146484Z"/>
  <path class="st0" d="M176.3496094,115.4125977c-.1542969,0-.3095703-.0048828-.4667969-.0146484-3.9960938-.2539062-7.0292969-3.6992188-6.7753906-7.6953125l3-47.2172852c.2539062-3.9956055,3.6796875-7.019043,7.6953125-6.7753906,3.9960938.2539062,7.0292969,3.6992188,6.7753906,7.6948242l-3,47.2172852c-.2441406,3.8398438-3.4345703,6.7905273-7.2285156,6.7905273Z"/>
</svg>