<?xml version="1.0" encoding="UTF-8"?>
<svg id="simple_arrow_left" xmlns="http://www.w3.org/2000/svg" version="1.1" viewBox="0 0 283.4645669 283.4645669">
  <!-- Generator: Adobe Illustrator 29.2.1, SVG Export Plug-In . SVG Version: 2.1.0 Build 116)  -->
  <defs>
    <style>
      .st0 {
        fill: #0476d9;
      }
    </style>
  </defs>
  <path class="st0" d="M195.2880859,270.0361328c2.8310547,2.8320312,2.8310547,7.421875,0,10.2539062-1.4160156,1.4150391-3.2714844,2.1230469-5.1269531,2.1230469s-3.7109375-.7080078-5.1269531-2.1230469l-96.1474609-96.1484375c-11.4985352-11.4990234-17.8310547-26.7871094-17.8310547-43.0483398,0-16.2607422,6.3325195-31.5488281,17.8310547-43.0473633L185.0371094,1.8945312c2.8320312-2.8310547,7.421875-2.8310547,10.2539062,0,2.8310547,2.8310547,2.8310547,7.421875,0,10.2529297l-96.1513672,96.1513672c-8.7597656,8.7597656-13.5839844,20.4067383-13.5839844,32.7944336,0,12.3881836,4.8242188,24.034668,13.5839844,32.7944336l96.1484375,96.1484375Z"/>
</svg>