<?xml version="1.0" encoding="UTF-8"?>
<svg id="arrow_out" xmlns="http://www.w3.org/2000/svg" version="1.1" viewBox="0 0 283.4645669 283.4645669">
  <!-- Generator: Adobe Illustrator 29.2.1, SVG Export Plug-In . SVG Version: 2.1.0 Build 116)  -->
  <defs>
    <style>
      .st0 {
        fill: #0476d9;
      }
    </style>
  </defs>
  <path class="st0" d="M141.7338867,276.2148438c0,4.0039062-3.2460938,7.25-7.25,7.25H12.9194336c-7.1240234,0-12.9194336-5.7958984-12.9194336-12.9199219V12.9194336C0,5.7954102,5.7954102,0,12.9194336,0h121.5644531c4.0039062,0,7.25,3.2460938,7.25,7.25s-3.2460938,7.25-7.25,7.25H14.5v254.4648438h119.9838867c4.0039062,0,7.25,3.2460938,7.25,7.25ZM283.3417969,141.7324219c0-.2504883-.0127563-.4980469-.0375366-.7420044-.1816406-8.616272-3.5203857-17.177063-10.0357056-23.7379761l-48.7705078-49.112793c-2.8212891-2.8413086-7.4121094-2.8574219-10.2529297-.0361328-2.8417969,2.8212891-2.8574219,7.4121094-.0361328,10.2529297l48.7705078,49.1132812c2.0432739,2.0576172,3.538147,4.456665,4.512207,7.0126953H77.6665039c-4.0039062,0-7.25,3.2460938-7.25,7.25s3.2460938,7.25,7.25,7.25h189.8244629c-.9741211,2.5552979-2.468689,4.9536743-4.5114746,7.0107422l-48.7724609,49.1152344c-2.8212891,2.8408203-2.8056641,7.4316406.0361328,10.2529297,1.4140625,1.4042969,3.2607422,2.1054688,5.1083984,2.1054688,1.8632812,0,3.7275391-.7148438,5.1445312-2.1416016l48.7724609-49.1152344c6.5148315-6.5598755,9.8535767-15.1196289,10.0356445-23.7352295.0248413-.2440796.0375977-.4916992.0375977-.7423096Z"/>
</svg>