<?xml version="1.0" encoding="UTF-8"?>
<svg id="Trash_Bin" xmlns="http://www.w3.org/2000/svg" version="1.1" viewBox="0 0 283.4645669 283.4645669">
  <!-- Generator: Adobe Illustrator 29.2.1, SVG Export Plug-In . SVG Version: 2.1.0 Build 116)  -->
  <defs>
    <style>
      .st0 {
        fill: #0476d9;
      }
    </style>
  </defs>
  <path class="st0" d="M254.704155,24.9337488h-89.9056579v-12.0472939c0-7.1058384-5.7811036-12.8864549-12.8859679-12.8864549h-20.3600046c-7.1053513,0-12.8859679,5.7806165-12.8859679,12.8864549v12.0472939H28.760899c-7.1058384,0-12.8864549,5.7806165-12.8864549,12.8864549v14.3767815c0,5.8486188,3.9194129,10.7911092,9.2672381,12.3599094l16.9035183,206.6290979c.1795332,6.8025983,5.7652749,12.2785745,12.6077492,12.2785745h173.4161829c6.8425351,0,12.428216-5.4759763,12.6077492-12.2785745l16.8913424-206.4345275c5.7292344-1.3073233,10.0218986-6.4342173,10.0218986-12.5544798v-14.3767815c0-7.1058384-5.7811036-12.8864549-12.8859679-12.8864549ZM133.1295435,14.4629867h17.2059669v10.4707621h-17.2059669v-10.4707621ZM30.3374308,39.3967354h222.7897054v11.2237179H30.3374308v-11.2237179ZM226.8522761,269.5501641H55.8698671l-16.7243503-204.466724h204.4310487l-16.7242895,204.466724ZM95.707917,246.3595131c.3490822,3.9798052-2.5933997,7.4908394-6.5632207,7.8399216-.2194701.0199684-.4388793.0299526-.6483651.0299526-3.7104749,0-6.8624427-2.8327773-7.2015407-6.5931733l-14.0141232-157.6365584c-.3491431-3.9798052,2.5933388-7.4908394,6.5631598-7.8499058,3.9798052-.3490822,7.4908394,2.5834154,7.8499058,6.5632207l14.0141841,157.6465427ZM126.1799216,89.1418655l4.6780305,157.6465427c.1196888,3.9897894-3.0222947,7.3212904-7.0120841,7.4409792h-.2194092c-3.9000533,0-7.1118045-3.0921233-7.2314933-7.0120841l-4.6680463-157.6465427c-.1196888-3.9897894,3.0222338-7.3212904,7.0120233-7.4409792,4.0197421-.129673,7.3312746,3.0222947,7.4409792,7.0120841ZM170.6560652,89.5707605l-4.6780305,157.6465427c-.1097046,3.9199608-3.3214559,7.0120841-7.2215091,7.0120841h-.2194092c-3.9897894-.1196888-7.131773-3.4511898-7.0120841-7.4409792l4.6680463-157.6465427c.1196888-3.9199608,3.331501-7.0220684,7.2314933-7.0220684.0698286,0,.1396572.0099842.2194701.0099842,3.9897894.1196888,7.1317121,3.4511898,7.0120233,7.4409792ZM215.0923936,89.9996556l-14.0041999,157.6365584c-.339098,3.760396-3.4910658,6.5931733-7.2015407,6.5931733-.2094859,0-.4288951-.0099842-.6483651-.0299526-3.9798052-.3490822-6.9123029-3.8601164-6.5632207-7.8399216l14.0141841-157.6465427c.3490822-3.9798052,3.8700397-6.9023795,7.8399216-6.5632207,3.9798052.3590664,6.9222871,3.8701006,6.5632207,7.8499058Z"/>
</svg>