<?xml version="1.0" encoding="UTF-8"?>
<svg id="pause" xmlns="http://www.w3.org/2000/svg" version="1.1" viewBox="0 0 283.4645669 283.4645669">
  <!-- Generator: Adobe Illustrator 29.2.1, SVG Export Plug-In . SVG Version: 2.1.0 Build 116)  -->
  <defs>
    <style>
      .st0 {
        fill: #0476d9;
      }
    </style>
  </defs>
  <path class="st0" d="M249.2431641,40.3452148C224.515625,13.5737305,188.4277344-.0004883,141.9824219-.0004883,95.5366211-.0004883,59.4487305,13.5737305,34.7207031,40.3452148,12.1699219,64.7602539.25,99.8193359.2495117,141.7333984c.0004883,41.9130859,11.9204102,76.9716797,34.4716797,101.3857422,24.7275391,26.7714844,60.8154297,40.3457031,107.2612305,40.3457031,46.4453125,0,82.5332031-13.5742188,107.2607422-40.3457031,22.5507812-24.4140625,34.4707031-59.4736328,34.4716797-101.3867188v-.0009766c-.0009766-41.9130859-11.9208984-76.9716797-34.4716797-101.3862305ZM269.2148438,141.7333984c0,38.2021484-10.5898438,69.859375-30.6230469,91.5478516-21.8701172,23.6777344-54.375,35.6835938-96.609375,35.6835938-42.2348633,0-74.7392578-12.0058594-96.6098633-35.6835938-20.0332031-21.6894531-30.6225586-53.3466797-30.6230469-91.5498047.0004883-38.2021484,10.5898438-69.859375,30.6230469-91.5478516,21.8706055-23.6782227,54.375-35.684082,96.6098633-35.684082,42.234375,0,74.7392578,12.0058594,96.609375,35.684082,20.0332031,21.6889648,30.6230469,53.3461914,30.6230469,91.5488281l7.25.0009766h-7.25ZM134.8120117,79.9018555l-.0004883,123.6606445c0,5.4980469-4.4731445,9.9716797-9.9711914,9.9716797h-45.1884766c-5.4980469,0-9.9711914-4.4736328-9.9711914-9.9716797v-123.6606445c0-5.4980469,4.4731445-9.9711914,9.9711914-9.9711914h45.1889648c5.4980469,0,9.9711914,4.4731445,9.9711914,9.9711914ZM214.2841797,79.9018555v103.6948242c0,16.5078125-13.4296875,29.9375-29.9375,29.9375h-25.2226562c-5.4980469,0-9.9707031-4.4736328-9.9707031-9.9716797l-.0009766-123.6606445c0-5.4980469,4.4736328-9.9711914,9.9716797-9.9711914h45.1884714c5.498052,0,9.9716848,4.4731445,9.9716848,9.9711914Z"/>
</svg>