<?xml version="1.0" encoding="UTF-8"?>
<svg id="plus" xmlns="http://www.w3.org/2000/svg" version="1.1" viewBox="0 0 283.4645669 283.4645669">
  <!-- Generator: Adobe Illustrator 29.2.1, SVG Export Plug-In . SVG Version: 2.1.0 Build 116)  -->
  <defs>
    <style>
      .st0 {
        fill: #0476d9;
      }
    </style>
  </defs>
  <path class="st0" d="M283.4648438,142.4868164c-.0214844,3.9907227-3.2626953,7.2114258-7.2490234,7.2114258h-.0390625l-127.2329102-.6772461-.6772461,127.2329102c-.0214844,3.9902344-3.2636719,7.2109375-7.2490234,7.2109375h-.0395508c-4.0039062-.0214844-7.2324219-3.2841797-7.2114258-7.2880859l.6772461-127.2329102-127.2324219-.6772461c-4.0039062-.0214844-7.2324219-3.2841797-7.2114258-7.2885742.0214844-3.9907227,3.2631836-7.2114258,7.2490234-7.2114258h.0395508l127.2324219.6772461.6772461-127.2324219c.0214844-3.9907227,3.2631836-7.2114258,7.2490234-7.2114258h.0395508c4.0043945.0214844,7.2329102,3.284668,7.2114258,7.2885742l-.6772461,127.2324219,127.2329102.6772461c4.0039062.0214844,7.2324219,3.284668,7.2109375,7.2885742Z"/>
</svg>