<?xml version="1.0" encoding="UTF-8"?>
<svg id="simple_arrow_right" xmlns="http://www.w3.org/2000/svg" version="1.1" viewBox="0 0 283.4645669 283.4645669">
  <!-- Generator: Adobe Illustrator 29.2.1, SVG Export Plug-In . SVG Version: 2.1.0 Build 116)  -->
  <defs>
    <style>
      .st0 {
        fill: #0476d9;
      }
    </style>
  </defs>
  <path class="st0" d="M205.0517578,141.7329102c0,16.2612305-6.3330078,31.5493164-17.8310547,43.0483398l-96.1484375,96.1474609c-1.4155273,1.4150391-3.2714844,2.1230469-5.1264648,2.1230469-1.8554688,0-3.7109375-.7080078-5.1264648-2.1230469-2.831543-2.8320312-2.831543-7.421875,0-10.2539062l96.1474609-96.1474609c8.7597656-8.7597656,13.5849609-20.40625,13.5849609-32.7944336s-4.8251953-24.0351562-13.5849609-32.7949219L80.815918,12.7866211c-2.831543-2.8310547-2.831543-7.421875,0-10.2529297,2.8310547-2.8310547,7.421875-2.8310547,10.2529297,0l96.1518555,96.1513672c11.4980469,11.4985352,17.8310547,26.7866211,17.8310547,43.0478516Z"/>
</svg>