<?xml version="1.0" encoding="UTF-8"?>
<svg id="Setting" xmlns="http://www.w3.org/2000/svg" version="1.1" viewBox="0 0 283.4645669 283.4645669">
  <!-- Generator: Adobe Illustrator 29.2.1, SVG Export Plug-In . SVG Version: 2.1.0 Build 116)  -->
  <defs>
    <style>
      .st0 {
        fill: #0476d9;
      }
    </style>
  </defs>
  <path class="st0" d="M279.6900024,165.3099976l-21.210022-7.5800171c.460022-5.1300049.6900024-10.4000244.6900024-15.7799683,0-5.3800049-.2299805-10.6400146-.6900024-15.7700195l21.210022-7.5800171c3.0999756-1.1099854,4.7299805-4.4699707,3.6699829-7.5499878l-9.4199829-27.4199829c-1.0999756-3.2200317-4.6900024-4.8800049-7.9000244-3.6600342l-17.0299683,6.460022c-4.5200195-10.7600098-10.5900269-20.4199829-18.2600098-28.7200317-.6099854-.6599731-1.2299805-1.3199463-1.8699951-1.9599609l11.1400146-15.4000244c1.9499512-2.6799927,1.3200073-6.4199829-1.3900146-8.3499756l-23.5999756-16.7200317c-2.6900024-1.9099731-6.4400024-1.3200073-8.4000244,1.3300171l-12.3900146,16.7199707c-9.4199829-3.6299438-19.9099731-6.2099609-31.5100098-7.5899658l-.9699707-.3900146V5.9799805c0-3.2999878-2.710022-5.9799805-6.0499878-5.9799805h-27.9500122c-3.3400269,0-6.0499878,2.6799927-6.0499878,5.9799805v19.3699951l-.9900513.3900146c-11.6999512,1.4000244-22.2799683,4-31.7599487,7.7000122l-12.1300049-16.7399902c-1.9400024-2.6900024-5.7200317-3.3099976-8.4400024-1.3800049l-23.5400391,16.6799927c-2.7199707,1.9299927-3.3399658,5.6699829-1.3999634,8.3499756l11.1499634,15.3900146c-8.5699463,8.7299805-15.2599487,19.0700073-20.1399536,30.6900024l-17.0300293-6.460022c-3.210022-1.2199707-6.789978.4400024-7.8999634,3.6600342L.0999756,111.0700073c-1.0499878,3.0799561.5700073,6.4299927,3.6500244,7.539978l21.2199707,7.7000122c-.4499512,5.0899658-.6699829,10.3099976-.6699829,15.6400146,0,5.3299561.2200317,10.5499878.6699829,15.6399536l-21.2199707,7.7000122c-3.0800171,1.1199951-4.7000122,4.4700317-3.6500244,7.539978l9.4300537,27.4500122c1.1099854,3.210022,4.6899414,4.8699951,7.8999634,3.6600342l17.0300293-6.4700317c4.5199585,10.7600098,10.5899658,20.4200439,18.2599487,28.7200317.6200562.6699829,1.2400513,1.3299561,1.8800049,1.9699707l-11.1499634,15.3900146c-1.9400024,2.6900024-1.3200073,6.4199829,1.3999634,8.3499756l23.5400391,16.6900024c2.7199707,1.9200439,6.5,1.3000488,8.4400024-1.3800049l12.1199951-16.7399902c9.5,3.6900024,20.0899658,6.3099976,31.8099976,7.710022l.9500122.3699951v19.3699951c0,3.2999878,2.7099609,5.9799805,6.0499878,5.9799805h27.9500122c3.3399658,0,6.0499878-2.6799927,6.0499878-5.9799805v-19.3699951l.9299927-.3699951c11.6099854-1.3900146,22.1199951-3.960022,31.5499878-7.6000366l12.3900146,16.710022c1.960022,2.6500244,5.710022,3.2399902,8.4000244,1.3300171l23.5999756-16.7200317c2.710022-1.9199829,3.3399658-5.6599731,1.3900146-8.3499756l-11.1500244-15.3900146c8.5700073-8.7299805,15.25-19.0700073,20.1400146-30.6900024l17.0299683,6.4700317c3.210022,1.2099609,6.8000488-.4500122,7.9000244-3.6600342l9.4199829-27.4199829c1.0599976-3.0900269-.5700073-6.4500122-3.6699829-7.5499878ZM141.7299805,244.8900146c-34.5100098,0-60.8699951-9.6000366-78.3599854-28.5400391-16.0800171-17.3999634-24.5700073-43.1300049-24.5700073-74.3999634,0-31.2700195,8.4899902-57,24.5700073-74.4000244,17.4899902-18.9299927,43.8499756-28.5300293,78.3599854-28.5300293s60.8800049,9.6000366,78.3600464,28.5300293c16.0799561,17.4000244,24.5799561,43.1300049,24.5799561,74.4000244,0,31.2699585-8.5,57-24.5799561,74.3999634-17.4800415,18.9400024-43.8500366,28.5400391-78.3600464,28.5400391Z"/>
</svg>