<?xml version="1.0" encoding="UTF-8"?>
<svg id="pen" xmlns="http://www.w3.org/2000/svg" version="1.1" viewBox="0 0 283.4645669 283.4645669">
  <!-- Generator: Adobe Illustrator 29.2.1, SVG Export Plug-In . SVG Version: 2.1.0 Build 116)  -->
  <defs>
    <style>
      .st0 {
        fill: #0476d9;
      }
    </style>
  </defs>
  <path class="st0" d="M279.4228516,45.1044922L238.7617188,4.559082c-5.4335938-5.4169922-14.2734375-5.4160156-19.703125-.0009766L8.8833008,214.0039062C3.2246094,219.6464844.1083984,227.1503906.1083984,235.1074219l-.1210938,35.1054688c0,7.1162109,5.7963867,12.9052734,12.9213867,12.9052734h36.4487305c6.9926758,0,13.9746094-2.9628906,19.1533203-8.1259766l210.9121094-210.1806641c2.6386719-2.6308594,4.0917969-6.1303711,4.0917969-9.8540039,0-3.7231445-1.453125-7.2226562-4.0917969-9.8530273ZM58.2739258,264.7226562c-.3934326.3922729-.8118286.7478027-1.2404785,1.0856323l-39.6147461-39.5009766c.507019-.7161255,1.0671387-1.4013672,1.701416-2.0338745L190.6407471,53.3476562l39.8598633,39.7451782L58.2739258,264.7226562ZM240.7713623,82.857666l-39.8598022-39.7451782,27.9976196-27.9005737,39.859375,39.7456055-27.9971924,27.9001465Z"/>
</svg>