<?xml version="1.0" encoding="UTF-8"?>
<svg id="simple_arrow_up" xmlns="http://www.w3.org/2000/svg" version="1.1" viewBox="0 0 283.4645669 283.4645669">
  <!-- Generator: Adobe Illustrator 29.2.1, SVG Export Plug-In . SVG Version: 2.1.0 Build 116)  -->
  <defs>
    <style>
      .st0 {
        fill: #0476d9;
      }
    </style>
  </defs>
  <path class="st0" d="M280.9296875,202.7890625c-1.4160156,1.4150391-3.2714844,2.1230469-5.1269531,2.1230469s-3.7109375-.7080078-5.1269531-2.1230469l-96.1513672-96.1523438c-8.7597656-8.7597656-20.40625-13.5839844-32.7944336-13.5839844-12.3876953,0-24.034668,4.8242188-32.7944336,13.5839844L12.7880859,202.7851562c-2.8310547,2.8300781-7.421875,2.8300781-10.2529297,0-2.831543-2.8320312-2.831543-7.421875,0-10.2539062l96.1474609-96.1474609c11.4985352-11.4985352,26.7866211-17.8310547,43.0473633-17.8310547,16.2612305,0,31.5493164,6.3325195,43.0483398,17.8310547l96.1513672,96.1513672c2.8310547,2.8320312,2.8310547,7.421875,0,10.2539062Z"/>
</svg>