<?xml version="1.0" encoding="UTF-8"?>
<svg id="updating" xmlns="http://www.w3.org/2000/svg" version="1.1" viewBox="0 0 283.4677734 283.465332">
  <!-- Generator: Adobe Illustrator 29.2.1, SVG Export Plug-In . SVG Version: 2.1.0 Build 116)  -->
  <defs>
    <style>
      .st0 {
        fill: #0476d9;
      }
    </style>
  </defs>
  <path class="st0" d="M208.2285156,77.5200195h48.1395264c-18.9349976-41.2352905-58.4954834-63.0200195-114.6351318-63.0200195-42.2348633,0-74.7392578,12.0058594-96.6098633,35.684082-20.0332031,21.6884766-30.6225586,53.3457031-30.6230469,91.5478516.0004883,38.203125,10.5898438,69.8603516,30.6230469,91.5498047,21.8706055,23.6777344,54.375,35.6835938,96.6098633,35.6835938,65.1987305,0,107.3364258-28.7705078,121.8579102-83.2001953,1.0322266-3.8681641,5.0039062-6.1650391,8.8740234-5.1357422,3.8681641,1.0322266,6.1679688,5.0048828,5.1357422,8.8740234-16.1650391,60.5917969-64.4169922,93.9619141-135.8676758,93.9619141-46.4458008,0-82.5336914-13.5742188-107.2612305-40.3457031C11.9204102,218.7055664.0004883,183.6469727,0,141.7338867c.0004883-41.9140625,11.9204102-76.9731445,34.4711914-101.3881836C59.1992188,13.5742188,95.2871094,0,141.7329102,0c76.1590576,0,110.8814087,36.3901978,126.7016602,69.0738525.3458252-1.1177368.5332031-2.3044434.5332031-3.5343018V16.7807617c0-4.0039062,3.2460938-7.25,7.25-7.25s7.25,3.2460938,7.25,7.25v48.7587891c0,14.6015625-11.8789062,26.4804688-26.4804688,26.4804688h-48.7587891c-4.0039062,0-7.25-3.2460938-7.25-7.25s3.2460938-7.25,7.25-7.25Z"/>
</svg>